# xmcd CD database file
#
# Track frame offsets:
#	150
#	22493
#	54295
#	75647
#	92789
#	117779
#	142068
#	161079
#	185889
#	213722
#	237694
#	256112
#	267370
#	297239
#	312967
#	330017
#
# Disc length: 4600 seconds
#
# Revision: 4
# Processed by: cddbd v1.5.2PL0 Copyright (c) Steve Scherf et al.
# Submitted via: CDex 1.70beta2
#
DISCID=f111f610
DTITLE=Cafe Anatolia - Cafe Anatolia
DYEAR=2004
DGENRE=New Age
TTITLE0=Gulendam 2004
TTITLE1=Mahmud - Eshkabad
TTITLE2=Omer Faruk Tekbilek - I Love You
TTITLE3=Yannis - Adi Bende Sakli
TTITLE4=C Spheeris - Eros
TTITLE5=Thedorakis - The Violet
TTITLE6=September Storm
TTITLE7=Alihan Samedou - Sen Gelmez Oldun 2004
TTITLE8=Arabel Solo - A Balum
TTITLE9=Brian Keane - Sweet Trouble
TTITLE10=Chris Sepheeris - Elektra
TTITLE11=E Gona - Historia Un Amor
TTITLE12=Geroge Dalaras - Magapas
TTITLE13=A Gilberto - Love Story
TTITLE14=Tango Feroz - Hasta Siempre
TTITLE15=Trio Azteca - Sway
EXTD=YEAR: 2004
EXTT0=
EXTT1=
EXTT2=
EXTT3=
EXTT4=
EXTT5=
EXTT6=
EXTT7=
EXTT8=
EXTT9=
EXTT10=
EXTT11=
EXTT12=
EXTT13=
EXTT14=
EXTT15=
PLAYORDER=
